<svg id="Layer_1" enable-background="new 0 0 128 128" height="512" viewBox="0 0 128 128" width="512" xmlns="http://www.w3.org/2000/svg"><g fill="#ffc1b6"><path d="m83 29.3-2.7-3.8c-2.4-3.4-6.7-4.7-10.6-3.2l-5.7 2.1-5.7-2.2c-3.9-1.5-8.2-.1-10.6 3.2l-2.7 3.9-6.2 2.5v8.2c0 1.6.2 3.2.5 4.7l1.5 6.9c.8 3.6 1.3 7.5 2.7 11 4.6 11.3 17.5 16.7 28.8 12.1 5.5-2.2 9.8-6.6 12.1-12.1 1.4-3.5 1.9-7.3 2.7-11l1.5-6.9c.3-1.5.5-3.1.5-4.7v-8.2z"/><path d="m89.9 38.6c-.2 0-.5 0-.7.1v1.3c0 1.6-.2 3.2-.5 4.7l-1.5 7c3.5 1.5 7.5-.1 9-3.5 1.5-3.5-.1-7.5-3.5-9-1-.4-1.9-.6-2.8-.6z"/><path d="m39.3 44.7c-.3-1.5-.5-3.1-.5-4.7v-1.3c-3.7-.5-7.2 2.1-7.7 5.8s2.1 7.2 5.8 7.7c1.3.2 2.7 0 3.9-.6z"/></g><path d="m67.4 48.3v-2.1c0-1.9-1.5-3.4-3.4-3.4-1.9 0-3.4 1.5-3.4 3.4v2.1c-1.6 0-2.9 1.3-2.9 2.9v.3c0 1.6 1.3 2.9 2.9 2.9h6.8c1.6 0 2.9-1.3 2.9-2.9v-.3c0-1.6-1.3-2.9-2.9-2.9z" fill="#ff6e8c"/><path d="m70.1 52.7c-.5 1.1-1.5 1.8-2.7 1.8h-6.8c-1.2 0-2.2-.7-2.7-1.8-4.5 1.2-7.6 5.2-7.6 9.8h8.7c2 0 3.9-1 5-2.7 1.1 1.7 3 2.7 5 2.7h8.7c0-4.6-3.1-8.6-7.6-9.8z" fill="#613d5c"/><path d="m76.7 1.7h-25.7c-11 0-20 9-20 20v23.7c0-3.8 3-6.8 6.7-6.9.3 0 .7 0 1 .1v-6.9l6.2-2.5 2.7-3.8c2.4-3.4 6.7-4.7 10.6-3.2l5.7 2.2 5.7-2.2c3.9-1.5 8.2-.1 10.6 3.2l2.7 3.8 6.2 2.5v6.9c.2 0 .5 0 .7-.1 3.8 0 6.9 3.1 6.9 6.9v-23.7c0-11-8.9-20-20-20z" fill="#613d5c"/><path d="m41.9 87c-2.1.2-4.2.4-6.3.5-1.3.1-2.6.2-3.8.3v17.7l13.5.9-5.5 8 8.6 11.9h15.6l-21-39.4c-.4.1-.7.1-1.1.1z" fill="#4b2746"/><path d="m45.3 106.4-13.5-.9v-17.7c-2.4.2-4.7.6-7 1.2-9.8 2.7-16.6 11.6-16.6 21.8v15.5h40.2l-8.6-11.9z" fill="#613d5c"/><path d="m86.1 87c2.1.2 4.2.4 6.3.5 1.3.1 2.6.2 3.8.3v17.7l-13.5.9 5.5 8-8.6 11.9h-15.6l21-39.3z" fill="#4b2746"/><path d="m82.8 106.4 13.5-.9v-17.7c2.4.2 4.7.6 7 1.2 9.8 2.7 16.6 11.6 16.6 21.8v15.5h-40.2l8.6-11.9z" fill="#613d5c"/><path d="m48.4 83.8c-1.2 1.8-3.2 3-5.4 3.2l9.2 17.2 11.8-9.9z" fill="#82d2ff"/><path d="m79.6 83.8c1.2 1.8 3.2 3 5.4 3.2l-9.2 17.2-11.8-9.9z" fill="#82d2ff"/><path d="m52.1 104.1 11.9 22.1 11.8-22.1-11.8-9.8z" fill="#fff5e6"/><path d="m64 94.3-7.6 6.3 4.8 6.4h5.6l4.8-6.4z" fill="#ffff32"/><path d="m66.7 107 4.9 5.1-7.6 14.1-7.6-14.1 4.8-5.1z" fill="#ffc42b"/><path d="m79.6 83.8c-.6-.9-1.1-2-1.4-3.1l-1.1-8.7c-7.8 5.7-18.4 5.7-26.2 0l-1.1 8.6c-.3 1.1-.7 2.2-1.4 3.1l15.6 10.6z" fill="#ffc1b6"/><path d="m70.8 33.4h8.2c2.2 0 4 1.8 4 4v4.9c0 2.2-1.8 4-4 4h-8.2c-2.2 0-4-1.8-4-4v-4.9c0-2.2 1.7-4 4-4z" fill="#82d2ff"/><path d="m49 33.4h8.2c2.2 0 4 1.8 4 4v4.9c0 2.2-1.8 4-4 4h-8.2c-2.2 0-4-1.8-4-4v-4.9c0-2.2 1.8-4 4-4z" fill="#82d2ff"/><path d="m90.9 10.3c-.6-.8-.5-1.9.3-2.5s1.9-.5 2.5.3c1 1.2 1.9 2.6 2.6 4 .4.9.1 1.9-.8 2.4-.9.4-1.9.1-2.4-.8 0 0 0 0 0-.1-.6-1.1-1.3-2.3-2.2-3.3zm30.7 100.4v15.5c0 1-.8 1.7-1.7 1.8h-111.8c-1 0-1.7-.8-1.8-1.7v-15.5c0-10.9 7.3-20.5 17.9-23.4 5-1.3 7.6-1.2 18.6-2.1 2.7-.2 4.6-2.2 5.2-4.8l1-7.5c-3.1-2.5-5.6-5.8-7.1-9.6-1.5-4-1.9-6.7-2.4-9.4-5.2 1.1-10.2-3-10.2-8.4v-23.8c0-12.1 9.7-21.8 21.7-21.8h25.7c3.1 0 6.1.6 8.9 1.9.9.4 1.2 1.5.8 2.3-.4.9-1.4 1.3-2.2.9-2.3-1.1-4.9-1.6-7.5-1.6h-25.7c-10.1 0-18.2 8.2-18.3 18.3v16.8c1.3-.9 2.7-1.5 4.3-1.7v-5.1c0-.7.4-1.4 1.1-1.6l5.7-2.3 2.4-3.4c2.8-4 8-5.6 12.6-3.9l5.1 1.9 5.1-1.9c4.6-1.8 9.8-.2 12.6 3.9l2.4 3.4 5.7 2.3c.7.3 1.1.9 1.1 1.6v5.2c1.5.2 2.9.7 4 1.6v-16.8c0-1 .8-1.8 1.8-1.8s1.8.8 1.8 1.8v23.7c0 5.4-4.9 9.4-10 8.5-.5 2.7-.9 5.3-2.4 9.3-1.5 3.7-4 7-7.1 9.6 0 0 .7 5.7 1 7.6.5 3.5 2.6 4.3 6.2 4.8 5.9.8 11.8.6 17.6 2 10.6 2.9 17.9 12.5 17.9 23.4zm-39-6.1 11.9-.8v-14.3c-4.2-.3-6.8-.5-8.5-.7-2 3.7-17.3 32.4-19.1 35.7h11.8l7.3-10.1-4.8-7c-.7-1.1.1-2.7 1.4-2.8zm-35.9 2.8-4.8 7 7.3 10.1h11.8l-19-35.7c-3.9.4-5.8.4-8.5.7v14.5l11.9.8c1.3-.1 2.1 1.5 1.3 2.6zm12.1-6.5 3.3 4.4h3.9l3.2-4.3-5.2-4.4zm-.3 11.5 5.4 10.2 5.4-10.2-3.4-3.6h-4zm15.1-7.8-1.7-1.4-2.8 3.8 2.1 2.2zm-19.2-.1 2.4 4.6 2.1-2.2-2.8-3.8zm24.7-18.3-12.2 8.3c6 4.9 8.3 7 8.3 7l7.3-13.5c-1.3-.4-2.4-1-3.4-1.8zm11.8-45.7c0 1.5-.2 3.1-.5 4.6l-1.2 5.4c2.9.5 5.8-1.8 5.8-5 0-2.4-1.7-4.5-4.1-5zm-50.3-7.5v5.1h2.7v-.7c0-3.2 2.6-5.7 5.8-5.8h8.2c3.2 0 5.7 2.6 5.8 5.7v3.7c.7-.1 1.3-.1 2 0v-3.7c0-3.2 2.6-5.7 5.8-5.8h8.1c3.2 0 5.7 2.6 5.8 5.8v.7h2.7v-5l-5.1-2.1c-.3-.1-.6-.3-.8-.6l-2.7-3.8c-1.9-2.7-5.4-3.8-8.5-2.6l-5.8 2.1c-.4.2-.8.2-1.3 0l-5.7-2.2c-3.1-1.2-6.6-.1-8.5 2.6l-2.7 3.8c-.2.3-.5.5-.8.6zm11.6 27.8h6.8c1.4 0 2.8-.7 3.5-1.9.7-1 2.2-1 2.9 0 .8 1.2 2.1 1.9 3.5 1.9h6.8c-.6-2.7-2.4-4.9-5-6-.9.9-2.1 1.5-3.4 1.5h-6.8c-1.3 0-2.5-.5-3.4-1.5-2.4 1-4.3 3.3-4.9 6zm-5.4-18.5c0 1.2 1 2.2 2.3 2.3h8.2c1.2 0 2.2-1 2.3-2.3v-4.9c0-1.2-1-2.2-2.3-2.3h-8.3c-1.2 0-2.2 1-2.3 2.3v4.9zm17.2 2.2c-.9 0-1.7.7-1.7 1.7v2.1c0 1-.8 1.7-1.8 1.8-1.6 0-1.6 2.7 0 2.7h6.8c1.6 0 1.6-2.7 0-2.7-1 0-1.8-.8-1.8-1.8v-2.1c.2-.9-.6-1.7-1.5-1.7zm15 .1c1.2 0 2.2-1 2.3-2.3v-4.9c0-1.2-1-2.2-2.3-2.3h-8.2c-1.2 0-2.2 1-2.3 2.3v4.9c0 1.2 1 2.2 2.3 2.3zm-40.2 5.9-1.2-5.4c-.3-1.5-.5-3.1-.5-4.6-2.8.4-4.7 3-4.2 5.8.4 2.8 3.1 4.7 5.9 4.2zm44 11.5c.9-2.6 1.6-5.2 2.1-8 .7-3.6 1-4.5 2.1-9.7.2-.9.3-1.8.4-2.7h-2.6v.7c0 3.2-2.6 5.7-5.8 5.8h-8.1c1.4 1.6 1.2 3.3 1.2 3.5 4.4 1.8 7.3 6.2 7.3 11 0 1-.8 1.7-1.7 1.8h-8.7c-1.8 0-3.6-.6-5-1.8-1.4 1.2-3.2 1.8-5 1.8h-8.7c-1 0-1.8-.8-1.8-1.8 0-4.8 2.9-9.1 7.3-11 0-.1-.2-1.9 1.2-3.5h-8c-3.2 0-5.7-2.6-5.8-5.8v-.7h-2.6c.1.9.2 1.8.4 2.7 1.7 7.8 1.4 6.3 2.1 9.7.4 2.7 1.1 5.4 2.1 8 6.7 16.4 30.7 17 37.6 0zm-37.2 26.1 7.1 13.3 10.2-8.4c.1-.1 3.8-2.6 14.3-9.7-.4-.8-.6-1.6-.7-2.4l-.8-5.9c-7.3 4.1-16.1 4.1-23.4 0l-.7 5.9c0 .3-.3 1.4-.8 2.4l5.5 3.7c.8.5 1 1.6.5 2.4s-1.6 1-2.4.5l-5.6-3.8c-1 .9-2 1.6-3.2 2zm-35.7 36.4h11.4v-13.3c0-1 .8-1.8 1.8-1.8s1.8.8 1.8 1.8v13.3h20.2l-6.6-9.1c-.4-.6-.4-1.4 0-2l3.8-5.5-10.4-.7c-.9-.1-1.6-.8-1.6-1.7v-15.8c-1.6.2-3.2.5-4.8.9-9 2.5-15.3 10.7-15.3 20.1v13.8zm108.2-13.8c0-9.4-6.3-17.6-15.3-20.1-1.6-.4-3.2-.7-4.8-.8v15.7c0 .9-.7 1.7-1.6 1.7l-10.4.7 3.8 5.5c.4.6.4 1.4 0 2l-6.6 9.1h20.2v-13.3c0-1 .8-1.8 1.8-1.8s1.8.8 1.8 1.8v13.3h11.4v-13.8z"/></svg>